<?xml version="1.0" encoding="utf-8"?>
<!-- Generator: Adobe Illustrator 25.2.2, SVG Export Plug-In . SVG Version: 6.00 Build 0)  -->
<svg version="1.1" id="Calque_1" xmlns="http://www.w3.org/2000/svg" xmlns:xlink="http://www.w3.org/1999/xlink" x="0px" y="0px"
	 viewBox="0 0 26.2 27.3" style="enable-background:new 0 0 26.2 27.3;" xml:space="preserve">
<g>
	<path d="M0,16.2v1.6c0,1.1,0.9,2.1,2,2.1c0,0,0,0,0.1,0h22.1c1.1,0,2-0.9,2-2v-1.6H0z M13.8,18.3c0,0.1-0.1,0.2-0.2,0.2
		c-0.1,0.1-0.2,0.1-0.2,0.2c-0.4,0.2-0.8,0-1-0.4c-0.2-0.4,0-0.8,0.4-1c0.2-0.1,0.4-0.1,0.6,0c0.1,0,0.2,0.1,0.2,0.2
		c0.1,0.1,0.2,0.3,0.2,0.5C13.8,18.1,13.8,18.2,13.8,18.3z M9.7,20.6v3h6.7v-3H9.7z M19.4,24.4H6.8c-1.6,0-3,1.2-3.2,2.8h18.9
		C22.4,25.6,21,24.4,19.4,24.4L19.4,24.4z M24.1,0h-22C1,0,0,0.9,0,2c0,0,0,0,0,0v13.4h26.2V2C26.2,0.9,25.3,0,24.1,0L24.1,0L24.1,0
		z"/>
</g>
</svg>
