<?xml version="1.0" encoding="utf-8"?>
<!-- Generator: Adobe Illustrator 25.2.2, SVG Export Plug-In . SVG Version: 6.00 Build 0)  -->
<svg version="1.1" id="Calque_1" xmlns="http://www.w3.org/2000/svg" xmlns:xlink="http://www.w3.org/1999/xlink" x="0px" y="0px"
	 viewBox="0 0 28.5 24.9" style="enable-background:new 0 0 28.5 24.9;" xml:space="preserve">
<path d="M14.7,1.2c-0.3-0.2-0.6-0.2-0.9,0L0,10.3l0.9,1.4l2-1.4v13.8c0,0.4,0.4,0.8,0.8,0.8h6.9c0.4,0,0.8-0.4,0.8-0.8v-9.8h5.7v9.8
	c0,0.4,0.4,0.8,0.8,0.8h6.9c0.4,0,0.8-0.4,0.8-0.8V10.3l2,1.4l0.9-1.4L14.7,1.2z"/>
<polygon points="22.8,0 19.3,0 19.3,3 22.8,5.4 "/>
</svg>
